{
    "asset" : {
        "generator" : "Khronos glTF Blender I/O v0.9.36",
        "version" : "2.0"
    },
    "scene" : 0,
    "scenes" : [
        {
            "name" : "Scene",
            "nodes" : [
                0,
                1,
                2
            ]
        }
    ],
    "nodes" : [
        {
            "name" : "Light",
            "rotation" : [
                0.16907575726509094,
                0.7558803558349609,
                -0.27217137813568115,
                0.570947527885437
            ],
            "translation" : [
                4.076245307922363,
                5.903861999511719,
                -1.0054539442062378
            ]
        },
        {
            "name" : "Camera",
            "rotation" : [
                0.483536034822464,
                0.33687159419059753,
                -0.20870360732078552,
                0.7804827094078064
            ],
            "translation" : [
                7.358891487121582,
                4.958309173583984,
                6.925790786743164
            ]
        },
        {
            "mesh" : 0,
            "name" : "Keynote",
            "translation" : [
                -0.15424370765686035,
                -0.26329970359802246,
                -0.1370077133178711
            ]
        }
    ],
    "meshes" : [
        {
            "name" : "Text.002",
            "primitives" : [
                {
                    "attributes" : {
                        "POSITION" : 0,
                        "NORMAL" : 1
                    },
                    "indices" : 2
                }
            ]
        }
    ],
    "accessors" : [
        {
            "bufferView" : 0,
            "componentType" : 5126,
            "count" : 6015,
            "max" : [
                4.873198509216309,
                0.07999999821186066,
                1.007462739944458
            ],
            "min" : [
                0.2014283835887909,
                -0.07999999821186066,
                -0.753731369972229
            ],
            "type" : "VEC3"
        },
        {
            "bufferView" : 1,
            "componentType" : 5126,
            "count" : 6015,
            "type" : "VEC3"
        },
        {
            "bufferView" : 2,
            "componentType" : 5123,
            "count" : 15348,
            "type" : "SCALAR"
        }
    ],
    "bufferViews" : [
        {
            "buffer" : 0,
            "byteLength" : 72180,
            "byteOffset" : 0
        },
        {
            "buffer" : 0,
            "byteLength" : 72180,
            "byteOffset" : 72180
        },
        {
            "buffer" : 0,
            "byteLength" : 30696,
            "byteOffset" : 144360
        }
    ],
    "buffers" : [
        {
            "byteLength" : 175056,
            "uri" : "data:application/octet-stream;base64,"
        }
    ]
}
