{
    "asset" : {
        "generator" : "Khronos glTF Blender I/O v0.9.36",
        "version" : "2.0"
    },
    "scene" : 0,
    "scenes" : [
        {
            "name" : "Scene",
            "nodes" : [
                0,
                1,
                2
            ]
        }
    ],
    "nodes" : [
        {
            "name" : "Light",
            "rotation" : [
                0.16907575726509094,
                0.7558803558349609,
                -0.27217137813568115,
                0.570947527885437
            ],
            "translation" : [
                4.076245307922363,
                5.903861999511719,
                -1.0054539442062378
            ]
        },
        {
            "name" : "Camera",
            "rotation" : [
                0.483536034822464,
                0.33687159419059753,
                -0.20870360732078552,
                0.7804827094078064
            ],
            "translation" : [
                7.358891487121582,
                4.958309173583984,
                6.925790786743164
            ]
        },
        {
            "mesh" : 0,
            "name" : "Practical",
            "translation" : [
                -0.08062517642974854,
                -0.28505802154541016,
                -0.024916410446166992
            ]
        }
    ],
    "meshes" : [
        {
            "name" : "Text.005",
            "primitives" : [
                {
                    "attributes" : {
                        "POSITION" : 0,
                        "NORMAL" : 1
                    },
                    "indices" : 2
                }
            ]
        }
    ],
    "accessors" : [
        {
            "bufferView" : 0,
            "componentType" : 5126,
            "count" : 2749,
            "max" : [
                4.546481609344482,
                0.15000000596046448,
                0.007462686859071255
            ],
            "min" : [
                0.22281450033187866,
                -0.15000000596046448,
                -0.753731369972229
            ],
            "type" : "VEC3"
        },
        {
            "bufferView" : 1,
            "componentType" : 5126,
            "count" : 2749,
            "type" : "VEC3"
        },
        {
            "bufferView" : 2,
            "componentType" : 5123,
            "count" : 7116,
            "type" : "SCALAR"
        }
    ],
    "bufferViews" : [
        {
            "buffer" : 0,
            "byteLength" : 32988,
            "byteOffset" : 0
        },
        {
            "buffer" : 0,
            "byteLength" : 32988,
            "byteOffset" : 32988
        },
        {
            "buffer" : 0,
            "byteLength" : 14232,
            "byteOffset" : 65976
        }
    ],
    "buffers" : [
        {
            "byteLength" : 80208,
            "uri" : "data:application/octet-stream;base64,"
        }
    ]
}
