{
    "asset" : {
        "generator" : "Khronos glTF Blender I/O v0.9.36",
        "version" : "2.0"
    },
    "scene" : 0,
    "scenes" : [
        {
            "name" : "Scene",
            "nodes" : [
                0,
                1,
                2,
                3,
                4,
                5,
                6
            ]
        }
    ],
    "nodes" : [
        {
            "name" : "Light",
            "rotation" : [
                0.16907575726509094,
                0.7558803558349609,
                -0.27217137813568115,
                0.570947527885437
            ],
            "translation" : [
                4.076245307922363,
                5.903861999511719,
                -1.0054539442062378
            ]
        },
        {
            "name" : "Camera",
            "rotation" : [
                0.483536034822464,
                0.33687159419059753,
                -0.20870360732078552,
                0.7804827094078064
            ],
            "translation" : [
                7.358891487121582,
                4.958309173583984,
                6.925790786743164
            ]
        },
        {
            "mesh" : 0,
            "name" : "program",
            "translation" : [
                -0.08062517642974854,
                -0.28505802154541016,
                -0.024916410446166992
            ]
        },
        {
            "mesh" : 1,
            "name" : "Tickets",
            "translation" : [
                -4.890192985534668,
                -0.2838726043701172,
                -0.015982508659362793
            ]
        },
        {
            "mesh" : 2,
            "name" : "Keynote",
            "translation" : [
                5.0672197341918945,
                -0.2838726043701172,
                -0.029990077018737793
            ]
        },
        {
            "mesh" : 3,
            "name" : "Partners",
            "translation" : [
                9.902632713317871,
                -0.28055286407470703,
                -0.04238414764404297
            ]
        },
        {
            "mesh" : 4,
            "name" : "practical",
            "translation" : [
                14.744622230529785,
                -0.27789306640625,
                -0.051596641540527344
            ]
        }
    ],
    "meshes" : [
        {
            "name" : "Text.006",
            "primitives" : [
                {
                    "attributes" : {
                        "POSITION" : 0,
                        "NORMAL" : 1
                    },
                    "indices" : 2
                }
            ]
        },
        {
            "name" : "Text.007",
            "primitives" : [
                {
                    "attributes" : {
                        "POSITION" : 3,
                        "NORMAL" : 4
                    },
                    "indices" : 5
                }
            ]
        },
        {
            "name" : "Text.008",
            "primitives" : [
                {
                    "attributes" : {
                        "POSITION" : 6,
                        "NORMAL" : 7
                    },
                    "indices" : 8
                }
            ]
        },
        {
            "name" : "Text.009",
            "primitives" : [
                {
                    "attributes" : {
                        "POSITION" : 9,
                        "NORMAL" : 10
                    },
                    "indices" : 11
                }
            ]
        },
        {
            "name" : "Text.010",
            "primitives" : [
                {
                    "attributes" : {
                        "POSITION" : 12,
                        "NORMAL" : 13
                    },
                    "indices" : 14
                }
            ]
        }
    ],
    "accessors" : [
        {
            "bufferView" : 0,
            "componentType" : 5126,
            "count" : 2624,
            "max" : [
                3.6931769847869873,
                0.14000000059604645,
                0.007462686859071255
            ],
            "min" : [
                0.22281450033187866,
                -0.14000000059604645,
                -0.753731369972229
            ],
            "type" : "VEC3"
        },
        {
            "bufferView" : 1,
            "componentType" : 5126,
            "count" : 2624,
            "type" : "VEC3"
        },
        {
            "bufferView" : 2,
            "componentType" : 5123,
            "count" : 6768,
            "type" : "SCALAR"
        },
        {
            "bufferView" : 3,
            "componentType" : 5126,
            "count" : 2871,
            "max" : [
                3.462963819503784,
                0.14000000059604645,
                0.007462686859071255
            ],
            "min" : [
                0.14179104566574097,
                -0.14000000059604645,
                -0.753731369972229
            ],
            "type" : "VEC3"
        },
        {
            "bufferView" : 4,
            "componentType" : 5126,
            "count" : 2871,
            "type" : "VEC3"
        },
        {
            "bufferView" : 5,
            "componentType" : 5123,
            "count" : 7284,
            "type" : "SCALAR"
        },
        {
            "bufferView" : 6,
            "componentType" : 5126,
            "count" : 6005,
            "max" : [
                4.173198699951172,
                0.14000000059604645,
                1.007462739944458
            ],
            "min" : [
                0.2014283835887909,
                -0.14000000059604645,
                -0.753731369972229
            ],
            "type" : "VEC3"
        },
        {
            "bufferView" : 7,
            "componentType" : 5126,
            "count" : 6005,
            "type" : "VEC3"
        },
        {
            "bufferView" : 8,
            "componentType" : 5123,
            "count" : 15348,
            "type" : "SCALAR"
        },
        {
            "bufferView" : 9,
            "componentType" : 5126,
            "count" : 3083,
            "max" : [
                4.119893550872803,
                0.14000000059604645,
                0.007462686859071255
            ],
            "min" : [
                0.22281450033187866,
                -0.14000000059604645,
                -0.753731369972229
            ],
            "type" : "VEC3"
        },
        {
            "bufferView" : 10,
            "componentType" : 5126,
            "count" : 3083,
            "type" : "VEC3"
        },
        {
            "bufferView" : 11,
            "componentType" : 5123,
            "count" : 7848,
            "type" : "SCALAR"
        },
        {
            "bufferView" : 12,
            "componentType" : 5126,
            "count" : 2749,
            "max" : [
                4.546481609344482,
                0.14000000059604645,
                0.007462686859071255
            ],
            "min" : [
                0.22281450033187866,
                -0.14000000059604645,
                -0.753731369972229
            ],
            "type" : "VEC3"
        },
        {
            "bufferView" : 13,
            "componentType" : 5126,
            "count" : 2749,
            "type" : "VEC3"
        },
        {
            "bufferView" : 14,
            "componentType" : 5123,
            "count" : 7116,
            "type" : "SCALAR"
        }
    ],
    "bufferViews" : [
        {
            "buffer" : 0,
            "byteLength" : 31488,
            "byteOffset" : 0
        },
        {
            "buffer" : 0,
            "byteLength" : 31488,
            "byteOffset" : 31488
        },
        {
            "buffer" : 0,
            "byteLength" : 13536,
            "byteOffset" : 62976
        },
        {
            "buffer" : 0,
            "byteLength" : 34452,
            "byteOffset" : 76512
        },
        {
            "buffer" : 0,
            "byteLength" : 34452,
            "byteOffset" : 110964
        },
        {
            "buffer" : 0,
            "byteLength" : 14568,
            "byteOffset" : 145416
        },
        {
            "buffer" : 0,
            "byteLength" : 72060,
            "byteOffset" : 159984
        },
        {
            "buffer" : 0,
            "byteLength" : 72060,
            "byteOffset" : 232044
        },
        {
            "buffer" : 0,
            "byteLength" : 30696,
            "byteOffset" : 304104
        },
        {
            "buffer" : 0,
            "byteLength" : 36996,
            "byteOffset" : 334800
        },
        {
            "buffer" : 0,
            "byteLength" : 36996,
            "byteOffset" : 371796
        },
        {
            "buffer" : 0,
            "byteLength" : 15696,
            "byteOffset" : 408792
        },
        {
            "buffer" : 0,
            "byteLength" : 32988,
            "byteOffset" : 424488
        },
        {
            "buffer" : 0,
            "byteLength" : 32988,
            "byteOffset" : 457476
        },
        {
            "buffer" : 0,
            "byteLength" : 14232,
            "byteOffset" : 490464
        }
    ],
    "buffers" : [
        {
            "byteLength" : 504696,
            "uri" : "data:application/octet-stream;base64,"
        }
    ]
}
